<?xml version="1.0" standalone="no"?>
<!DOCTYPE svg PUBLIC "-//W3C//DTD SVG 20010904//EN"
 "http://www.w3.org/TR/2001/REC-SVG-20010904/DTD/svg10.dtd">
<svg version="1.0" xmlns="http://www.w3.org/2000/svg"
 width="390.000000pt" height="390.000000pt" viewBox="0 0 390.000000 390.000000"
 preserveAspectRatio="xMidYMid meet">
<metadata>
Created by potrace 1.11, written by Peter Selinger 2001-2013
</metadata>
<g transform="translate(0.000000,390.000000) scale(0.100000,-0.100000)"
fill="#000000" stroke="none">
<path d="M2475 3739 c-121 -84 -299 -206 -395 -272 -96 -66 -195 -135 -220
-152 -25 -17 -190 -132 -367 -254 l-323 -223 0 -358 0 -359 123 -84 c142 -98
643 -442 799 -549 82 -56 104 -76 95 -85 -7 -6 -77 -56 -157 -112 -80 -55
-215 -150 -300 -210 -85 -60 -184 -129 -220 -151 -90 -58 -90 -58 -21 -56 l61
1 0 -100 0 -100 -97 0 c-77 0 -97 -3 -101 -15 -4 -13 -3 -13 10 -2 13 10 18
10 24 1 4 -7 3 -9 -3 -6 -6 4 -16 1 -22 -7 -7 -8 -8 -16 -4 -18 4 -3 2 -3 -5
-1 -8 1 -12 -3 -9 -9 2 -7 9 -12 14 -11 5 1 10 -4 10 -12 0 -8 -3 -12 -7 -10
-4 3 -7 -11 -6 -30 0 -19 6 -35 11 -35 6 0 4 -4 -4 -9 -20 -13 0 -21 59 -25
44 -3 51 -2 46 12 -5 15 -4 15 7 0 11 -14 16 -15 27 -5 7 7 10 7 7 1 -3 -6 0
-11 8 -11 8 0 11 5 8 11 -3 6 -1 6 7 -1 7 -6 18 -9 25 -6 7 2 16 -4 19 -14 3
-10 15 -19 26 -19 25 0 26 13 3 19 -17 4 -17 5 0 6 10 0 20 -6 23 -14 4 -8 10
-15 16 -15 5 0 7 4 3 9 -6 10 11 24 32 27 7 1 15 -7 19 -18 6 -19 19 -16 19 4
0 7 30 11 77 12 88 1 15 -43 573 345 l330 229 3 350 2 351 -85 58 c-47 32
-174 119 -283 193 -108 75 -306 211 -440 302 l-243 166 281 193 c154 107 390
270 525 363 l245 169 0 344 c0 188 -1 343 -3 343 -1 0 -101 -68 -222 -151z
m-739 -2764 c-1 -52 -4 -95 -9 -95 -4 0 -5 5 -2 10 3 6 0 10 -7 10 -11 0 -10
2 0 9 11 7 11 9 -1 14 -11 4 -14 -1 -12 -19 2 -21 -1 -24 -24 -21 -14 3 -31 0
-37 -4 -17 -14 -40 17 -25 35 9 11 6 14 -14 14 -20 0 -23 -3 -14 -14 6 -8 8
-14 4 -14 -4 0 -1 -8 6 -17 13 -16 12 -17 -3 -5 -9 8 -22 11 -27 8 -5 -4 -13
-1 -17 5 -4 8 -3 9 4 5 13 -8 17 6 5 18 -9 9 -13 36 -5 35 19 -3 33 2 28 10
-5 8 41 42 69 51 6 1 16 11 23 22 7 10 18 16 23 13 5 -4 9 -1 9 5 0 6 5 8 10
5 6 -3 10 -1 10 4 0 6 1 11 3 11 2 0 3 -43 3 -95z m244 87 c0 9 3 9 10 -2 9
-13 11 -13 21 0 9 13 10 12 5 -2 -3 -10 -1 -20 4 -23 9 -5 14 6 12 26 -1 8 51
5 66 -4 7 -5 12 -4 12 3 0 6 5 8 11 4 8 -4 7 -9 -2 -15 -7 -4 -17 -5 -22 -2
-5 3 -7 0 -5 -8 3 -8 11 -13 17 -11 7 1 10 -2 6 -8 -3 -5 -1 -10 5 -10 6 0 8
-5 3 -12 -14 -23 -14 -50 -1 -42 9 5 9 2 -1 -9 -9 -12 -10 -17 -2 -17 7 0 9
-5 4 -12 -13 -22 -14 -50 -1 -42 7 4 8 3 4 -5 -4 -6 -13 -9 -19 -5 -7 3 -3 -2
7 -10 13 -10 15 -16 7 -16 -10 0 -11 -3 -2 -14 9 -10 9 -16 1 -21 -8 -5 -8
-11 1 -21 6 -8 7 -14 2 -14 -12 0 -13 -31 -1 -47 5 -7 5 -14 -2 -18 -6 -3 -8
-9 -6 -13 2 -4 -64 -7 -147 -7 -111 0 -151 3 -155 13 -2 6 1 12 8 12 6 0 9 4
5 10 -9 14 -33 1 -31 -17 2 -23 -33 -24 -45 -1 -6 12 -7 18 -1 14 5 -3 15 1
22 9 10 12 10 19 -2 33 -28 32 -28 39 -2 36 16 -1 24 2 21 9 -2 7 -11 11 -19
9 -9 -1 -18 5 -22 13 -3 9 -2 14 2 11 4 -2 16 3 27 11 20 15 20 15 -2 8 -13
-3 -23 -2 -23 2 0 5 23 9 50 9 28 1 50 -3 50 -7 0 -5 -3 -8 -7 -8 -20 3 -34
-2 -28 -11 4 -7 12 -7 24 0 10 5 21 6 25 2 4 -3 4 1 0 11 -3 10 -1 17 6 17 6
0 8 -4 5 -10 -3 -5 0 -10 7 -10 8 0 9 -3 3 -8 -13 -9 -13 -35 0 -44 5 -4 14
-3 20 2 5 4 14 8 20 8 5 0 11 6 13 14 3 10 2 10 -6 -1 -7 -9 -12 -10 -16 -2
-4 6 -3 11 2 11 5 0 9 6 9 13 0 8 -6 14 -12 14 -7 0 -11 -11 -9 -24 1 -12 -2
-23 -6 -23 -5 0 -8 13 -8 30 1 26 4 29 29 26 17 -2 34 3 41 12 11 13 10 15 -4
9 -10 -3 -18 -2 -18 2 0 5 7 11 15 15 8 3 15 0 15 -6 0 -7 7 -3 16 8 8 10 12
12 8 4 -6 -12 -4 -13 6 -3 16 15 7 28 -12 17 -17 -11 -48 -13 -42 -2 3 4 1 8
-5 8 -5 0 -8 8 -6 18 2 9 4 17 5 17 1 0 3 8 5 18 2 9 -2 17 -8 17 -8 0 -8 3 1
9 8 4 11 19 8 34 -4 24 -3 26 15 17 14 -8 19 -7 19 2z m-210 -323 c0 -14 -17
-10 -23 5 -4 10 -1 13 9 9 7 -3 14 -9 14 -14z m-240 -117 c0 -5 -7 -9 -15 -9
-8 0 -12 4 -9 9 3 4 9 8 15 8 5 0 9 -4 9 -8z m-70 -36 c0 -2 -8 -10 -17 -17
-16 -13 -17 -12 -4 4 13 16 21 21 21 13z m83 -21 c-3 -9 -8 -14 -10 -11 -3 3
-2 9 2 15 9 16 15 13 8 -4z m-53 -9 c0 -2 -8 -10 -17 -17 -16 -13 -17 -12 -4
4 13 16 21 21 21 13z m-40 -16 c0 -5 -2 -10 -4 -10 -3 0 -8 5 -11 10 -3 6 -1
10 4 10 6 0 11 -4 11 -10z"/>
<path d="M1689 1030 c-1 -3 -1 -8 0 -12 0 -5 -3 -9 -9 -9 -20 -3 -25 -5 -55
-24 -27 -18 -31 -26 -26 -51 0 -4 7 -1 15 5 17 14 30 -11 14 -27 -14 -14 0
-36 15 -24 7 5 20 8 30 7 9 -2 17 0 18 3 3 32 10 48 25 59 10 7 12 13 6 13 -7
0 -12 5 -12 11 0 5 4 8 8 5 4 -2 9 4 9 16 1 14 -3 18 -15 14 -14 -5 -14 -4 2
8 18 14 18 15 -3 13 -11 -1 -22 -4 -22 -7z m25 -32 c-3 -5 -9 -6 -14 -3 -4 3
-10 -1 -13 -7 -2 -7 -8 -9 -13 -5 -5 4 -3 12 4 16 17 10 42 10 36 -1z m-60
-12 c-3 -9 2 -13 18 -12 35 3 39 -3 23 -28 -8 -12 -12 -26 -8 -29 3 -4 1 -8
-5 -8 -21 -2 -27 -4 -39 -12 -8 -5 -13 -4 -13 2 0 6 5 11 10 11 13 0 9 32 -5
42 -5 4 -15 2 -22 -4 -25 -20 -13 1 14 27 32 29 34 30 27 11z"/>
<path d="M1641 960 c7 -5 14 -16 15 -25 4 -26 8 -26 25 3 15 27 15 27 -19 28
-21 1 -29 -2 -21 -6z"/>
<path d="M1710 939 c0 -5 5 -7 10 -4 6 3 10 8 10 11 0 2 -4 4 -10 4 -5 0 -10
-5 -10 -11z"/>
<path d="M1566 931 c-3 -5 2 -15 12 -22 15 -12 16 -12 5 2 -7 9 -10 19 -6 22
3 4 4 7 0 7 -3 0 -8 -4 -11 -9z"/>
<path d="M2039 1038 c-12 -22 -11 -37 1 -18 6 9 10 10 10 3 0 -6 9 -10 20 -8
11 2 22 -1 26 -6 3 -5 2 -9 -3 -8 -22 4 -25 -3 -7 -17 10 -8 13 -12 5 -8 -10
5 -12 3 -7 -7 4 -8 1 -6 -7 4 -13 15 -15 15 -20 2 -4 -8 -2 -14 4 -12 6 1 18
-8 26 -21 9 -13 12 -22 7 -21 -23 4 -26 -2 -8 -15 18 -14 18 -14 0 -13 -10 1
-20 -4 -22 -11 -1 -7 0 -8 3 -2 2 5 9 10 15 10 7 0 7 -4 -1 -13 -8 -10 -7 -17
1 -25 7 -7 9 -12 5 -12 -4 0 -3 -10 4 -21 9 -17 8 -20 -3 -14 -10 6 -11 5 0
-6 6 -7 12 -18 12 -24 0 -5 -4 -4 -9 4 -6 9 -11 10 -15 2 -4 -6 -2 -11 3 -11
6 0 10 -3 9 -7 -2 -5 2 -9 7 -11 6 -1 10 9 10 22 1 14 4 28 8 32 4 4 2 13 -4
21 -6 7 -8 13 -3 13 5 0 3 4 -5 9 -9 6 -11 15 -6 27 12 27 14 74 3 74 -5 0 -6
6 -1 13 14 23 12 42 -8 63 -16 17 -17 23 -7 27 7 3 3 4 -10 4 -13 -1 -28 -9
-33 -19z m31 -3 c11 -13 10 -14 -4 -9 -9 3 -16 10 -16 15 0 13 6 11 20 -6z"/>
<path d="M1957 1044 c10 -4 10 -11 2 -26 -8 -15 -8 -19 0 -14 6 4 11 2 11 -3
0 -6 -5 -11 -12 -11 -6 0 -8 -3 -5 -7 4 -3 2 -12 -3 -19 -8 -8 -6 -17 6 -29
16 -15 19 -15 29 -2 9 12 14 13 28 2 16 -12 13 -16 -32 -52 -36 -29 -47 -43
-39 -51 13 -13 -8 -46 -23 -36 -5 3 -12 -1 -15 -10 -5 -13 -8 -12 -24 2 -11 8
-17 19 -14 24 10 16 -7 28 -26 18 -13 -7 -21 -6 -29 4 -6 7 -10 15 -8 17 1 2
-3 -2 -10 -9 -6 -7 -14 -13 -18 -12 -4 1 -10 -2 -13 -6 -4 -4 -2 -5 3 -1 6 3
18 -1 28 -8 16 -11 16 -13 1 -26 -10 -8 -19 -13 -21 -11 -14 10 -13 -2 2 -18
17 -19 17 -21 0 -40 -10 -11 -15 -23 -12 -27 4 -3 7 0 7 8 0 12 2 11 11 -1 9
-13 10 -12 5 2 -3 10 2 22 12 28 15 8 15 11 2 21 -13 9 -13 10 2 6 22 -8 31 4
13 17 -13 9 -11 11 9 12 20 2 23 -3 22 -27 -1 -30 -11 -38 -19 -16 -4 9 -6 9
-6 0 -1 -6 4 -15 9 -18 8 -5 8 -11 1 -19 -7 -9 -4 -12 14 -12 14 0 25 5 25 11
0 5 5 3 10 -5 6 -9 10 -10 10 -3 0 6 -4 14 -10 18 -5 3 -7 13 -4 23 5 13 4 14
-4 3 -7 -9 -12 -10 -16 -2 -4 6 -3 11 3 11 5 0 8 9 6 20 -2 12 0 18 6 15 5 -4
7 -10 4 -15 -3 -5 7 -7 22 -4 16 3 30 10 32 15 1 6 9 2 16 -8 11 -15 16 -16
27 -5 11 11 10 16 -6 28 -11 8 -14 14 -7 14 7 0 9 5 6 10 -3 6 -1 10 5 10 6 0
8 5 5 10 -4 6 -12 7 -18 4 -7 -4 -8 -3 -4 2 5 5 14 9 20 9 7 1 11 6 10 12 -2
7 7 10 24 7 21 -4 24 -2 15 8 -9 11 -6 14 11 15 12 1 17 -1 12 -5 -6 -4 -10
-16 -10 -27 0 -11 -4 -26 -9 -33 -5 -7 -6 -15 -3 -19 4 -3 2 -12 -5 -20 -14
-18 -1 -31 15 -13 9 10 9 11 0 6 -7 -4 -13 -5 -13 -2 0 3 9 10 21 16 19 10 20
10 10 -9 -7 -12 -7 -22 -1 -26 5 -3 6 -13 3 -22 -5 -13 -2 -15 12 -9 11 4 16
4 12 0 -4 -4 1 -13 11 -21 11 -9 6 -9 -17 2 -21 11 -31 12 -26 4 5 -8 4 -10
-3 -5 -8 5 -10 1 -5 -10 4 -11 8 -13 11 -6 2 7 8 12 13 12 6 0 8 -4 5 -8 -6
-10 25 -9 42 2 9 5 4 15 -19 36 -20 19 -28 34 -22 42 13 21 11 62 -5 80 -12
14 -12 20 -2 33 7 8 9 15 5 15 -4 0 -2 7 5 15 22 26 -21 45 -49 22 -12 -10
-13 -9 -6 2 6 10 4 12 -6 6 -11 -6 -12 -5 -1 6 6 7 12 17 12 23 0 5 -11 -5
-25 -24 -14 -19 -25 -30 -25 -25 0 5 8 17 18 28 16 19 16 20 -5 8 -19 -10 -22
-9 -17 4 4 9 9 14 12 11 2 -3 13 -1 23 5 15 7 21 6 25 -6 3 -8 11 -15 17 -15
6 0 7 3 4 7 -4 3 1 12 10 18 16 12 16 13 -2 12 -36 0 -46 3 -40 12 7 12 -8 21
-43 26 -15 2 -21 2 -15 -1z m50 -29 c0 -8 -4 -12 -9 -9 -4 3 -8 -1 -8 -8 0 -8
-5 -6 -11 5 -5 9 -7 21 -4 27 8 13 32 2 32 -15z m52 -81 c-6 -7 -8 -17 -6 -21
3 -5 -3 -9 -13 -9 -10 0 -16 5 -12 11 4 5 7 13 8 18 3 13 4 14 19 14 11 0 12
-4 4 -13z m9 -108 c1 -17 -1 -18 -8 -6 -7 10 -10 11 -10 3 0 -7 -5 -13 -11
-13 -8 0 -8 4 0 14 6 7 8 22 4 32 -6 16 -5 16 8 4 8 -7 16 -23 17 -34z m-248
-8 c17 -11 22 -10 30 2 7 12 9 11 8 -5 -1 -13 -10 -20 -25 -21 -13 -1 -21 2
-18 6 3 5 -3 13 -12 19 -10 6 -15 11 -10 11 4 0 16 -6 27 -12z m150 -38 c0 -5
-5 -10 -11 -10 -5 0 -7 5 -4 10 3 6 8 10 11 10 2 0 4 -4 4 -10z m-170 -6 c0
-8 -19 -13 -24 -6 -3 5 1 9 9 9 8 0 15 -2 15 -3z m64 -53 c3 -5 -1 -11 -9 -14
-9 -4 -12 -1 -8 9 6 16 10 17 17 5z"/>
<path d="M1990 855 c-7 -8 -9 -15 -6 -15 4 0 2 -8 -3 -18 -7 -13 -6 -23 2 -31
8 -8 7 -15 -6 -28 -13 -13 -20 -14 -28 -6 -9 9 -18 9 -31 2 -10 -5 -22 -8 -27
-5 -9 6 -7 -21 3 -45 8 -18 36 -22 36 -5 0 6 5 4 10 -4 6 -10 10 -11 10 -2 0
6 5 12 11 12 5 0 8 -4 5 -8 -2 -4 11 -8 30 -8 21 0 33 5 30 11 -2 6 2 19 10
29 16 22 8 42 -11 26 -16 -14 -30 17 -15 35 5 6 7 15 3 18 -3 4 -1 13 6 20 9
11 8 17 -3 26 -10 9 -16 8 -26 -4z m20 -20 c-6 -7 -9 -17 -8 -23 2 -5 -1 -10
-7 -10 -5 0 -8 5 -6 12 2 6 5 18 6 26 2 8 4 16 4 18 1 2 6 0 11 -3 8 -5 8 -11
0 -20z m-18 -77 c-17 -17 -15 -33 3 -18 8 7 15 9 15 5 0 -4 7 -2 15 5 13 11
14 10 9 -3 -3 -8 -12 -18 -20 -21 -9 -3 -13 -10 -10 -15 7 -10 -13 -9 -30 1
-6 4 -23 5 -37 2 -16 -2 -27 0 -27 6 0 6 -6 8 -12 4 -9 -5 -8 -2 1 9 13 16 15
16 32 1 21 -19 26 -6 7 16 -7 8 -4 7 7 -2 20 -16 21 -16 33 2 7 11 15 20 19
20 4 0 2 -5 -5 -12z"/>
<path d="M1995 730 c-4 -6 -11 -7 -17 -4 -7 4 -8 2 -4 -5 6 -9 11 -9 22 0 14
11 18 19 10 19 -3 0 -8 -5 -11 -10z"/>
<path d="M2325 2749 c-198 -138 -361 -254 -363 -258 -5 -14 479 -343 497 -338
10 2 68 39 129 82 l112 78 0 343 c0 189 -3 344 -7 344 -5 -1 -170 -113 -368
-251z"/>
<path d="M1330 798 c-14 -13 -25 -21 -25 -18 -1 3 -30 -15 -67 -40 -64 -44
-65 -46 -64 -87 1 -46 18 -74 31 -52 6 8 4 10 -5 4 -9 -6 -11 -4 -5 5 5 8 4
11 -2 7 -6 -4 -10 3 -9 16 1 12 7 21 14 20 7 -2 12 2 12 8 0 6 -6 9 -13 6 -8
-3 -14 1 -14 9 0 7 4 11 9 7 17 -10 88 -10 88 0 0 6 3 7 6 4 4 -4 1 -13 -6
-22 -8 -9 -8 -15 -2 -15 6 0 17 9 25 20 13 19 15 19 21 4 7 -19 -12 -37 -28
-27 -5 4 -6 1 -1 -7 5 -8 4 -11 -3 -7 -5 4 -17 4 -26 1 -13 -5 -14 -9 -5 -20
6 -8 17 -13 23 -13 6 1 19 -1 29 -6 15 -6 16 -10 5 -16 -10 -7 -11 -9 0 -9 7
0 10 -4 7 -10 -3 -6 1 -7 10 -3 12 4 13 8 5 13 -9 6 -9 9 -1 15 9 5 9 10 0 21
-8 10 -9 18 0 27 6 8 8 17 4 20 -3 4 -1 12 4 19 9 11 17 148 9 148 -1 0 -13
-10 -26 -22z m-15 -38 c-3 -5 -12 -10 -18 -10 -7 0 -6 4 3 10 19 12 23 12 15
0z m15 -125 c-10 -12 -10 -18 1 -32 13 -17 13 -17 -6 -3 -11 8 -22 16 -24 17
-4 3 30 32 38 33 2 0 -2 -7 -9 -15z m-40 -15 c0 -5 -4 -10 -10 -10 -5 0 -10 5
-10 10 0 6 5 10 10 10 6 0 10 -4 10 -10z"/>
<path d="M1216 654 c-3 -8 -10 -12 -16 -9 -16 10 -12 -11 5 -25 17 -15 2 -42
-19 -34 -8 3 -12 -8 -12 -36 0 -32 3 -40 18 -40 10 0 18 5 18 10 0 6 -5 9 -11
8 -6 -2 -14 4 -16 12 -4 13 -3 13 6 0 6 -8 11 -10 11 -4 0 5 -5 15 -12 22 -9
9 -6 10 12 7 12 -2 30 0 39 5 13 8 14 9 1 10 -13 0 -13 2 0 9 8 6 19 7 25 5 5
-3 2 1 -8 9 -16 14 -14 53 2 42 4 -2 8 2 8 8 0 19 -44 19 -51 1z m28 -2 c-6
-4 -10 -17 -9 -30 1 -13 -2 -25 -7 -28 -4 -3 -6 -10 -3 -15 4 -5 1 -9 -4 -9
-14 0 -14 17 -1 25 7 4 7 13 0 24 -9 19 4 41 25 41 6 0 6 -3 -1 -8z"/>
<path d="M1280 590 c-8 -5 -18 -6 -22 -4 -5 3 -8 2 -7 -3 4 -23 -3 -31 -25
-29 -17 2 -23 -1 -19 -10 3 -8 10 -14 15 -14 6 0 5 -6 -2 -15 -6 -8 -9 -18 -6
-23 3 -5 -1 -9 -9 -9 -8 0 -12 4 -9 9 3 4 -1 5 -9 2 -15 -6 -17 -70 -3 -93 6
-9 5 -12 -1 -8 -7 5 -11 -6 -11 -29 0 -25 3 -33 9 -23 6 9 9 10 9 2 0 -6 -4
-15 -10 -18 -24 -15 -9 -34 25 -33 28 1 35 5 30 17 -4 13 -2 12 9 -1 15 -21
61 -25 50 -5 -6 9 -4 9 7 -1 7 -6 23 -12 35 -12 21 0 22 3 19 103 -2 56 -4
104 -5 107 -1 3 -2 9 -1 13 1 5 -3 6 -8 3 -7 -5 -36 46 -36 66 0 13 -11 17
-25 8z m24 -42 c11 -15 12 -26 6 -32 -15 -15 -12 -30 4 -17 10 8 16 9 21 1 3
-5 2 -10 -4 -10 -5 0 -16 -3 -25 -6 -11 -4 -16 0 -16 12 0 16 -2 17 -10 4 -9
-13 -10 -13 -10 0 0 13 -2 13 -9 1 -5 -8 -16 -11 -27 -7 -12 5 -14 10 -6 18 6
6 9 16 8 22 -2 6 -1 7 2 3 2 -5 11 1 19 12 18 27 28 26 47 -1z"/>
<path d="M1259 538 c-7 -13 -17 -26 -23 -30 -8 -6 -8 -8 0 -8 6 0 14 3 18 8 4
4 16 8 27 8 30 2 30 3 19 24 -14 26 -27 25 -41 -2z m34 -2 c4 -10 1 -13 -9 -9
-15 6 -19 23 -5 23 5 0 11 -7 14 -14z"/>
<path d="M1330 540 c0 -5 5 -10 10 -10 6 0 10 5 10 10 0 6 -4 10 -10 10 -5 0
-10 -4 -10 -10z"/>
<path d="M1659 475 c-1 -3 -2 -11 -3 -17 -2 -19 -76 -17 -86 2 -5 8 -12 11
-16 7 -5 -5 -2 -12 5 -16 11 -7 11 -10 0 -14 -10 -4 -10 -6 -1 -6 6 -1 12 -6
12 -12 0 -5 -4 -8 -8 -5 -4 2 -8 -6 -8 -20 0 -13 5 -24 11 -24 5 0 3 -5 -5
-10 -10 -6 -11 -10 -2 -10 6 0 12 -5 12 -11 0 -5 -4 -8 -9 -4 -6 3 -8 -3 -6
-13 6 -32 -7 -37 -100 -37 l-90 0 0 -68 c-1 -38 2 -70 6 -72 3 -3 17 6 30 18
13 12 32 27 44 32 24 12 29 51 7 60 -8 3 -17 3 -20 0 -3 -3 0 -5 7 -5 7 0 10
-4 6 -9 -3 -5 -1 -12 5 -16 17 -11 2 -22 -27 -20 -18 1 -28 7 -28 17 0 8 -6
23 -14 32 -7 9 -11 17 -7 17 26 6 54 4 70 -4 14 -7 17 -6 11 5 -6 10 -5 10 4
2 7 -6 13 -19 15 -28 1 -9 6 -15 12 -14 5 2 8 7 6 12 -2 5 4 6 13 2 9 -3 13
-2 10 4 -3 6 -3 10 2 11 38 3 78 28 105 64 5 7 8 7 8 0 0 -5 6 -3 13 6 7 9 23
21 35 28 46 25 72 53 63 70 -5 9 -6 21 -4 28 2 6 -1 14 -6 18 -6 3 -8 0 -5 -8
3 -8 -2 -17 -11 -21 -9 -3 -18 0 -21 8 -5 14 -33 30 -35 21z m35 -56 c-10 -16
9 -9 22 9 13 16 14 16 7 -2 -5 -14 -3 -17 7 -11 9 5 11 4 6 -4 -4 -6 -11 -9
-16 -6 -4 3 -10 -2 -13 -9 -3 -8 -15 -20 -26 -26 -18 -9 -20 -8 -14 7 6 16 5
16 -10 4 -9 -7 -15 -16 -13 -20 3 -4 1 -13 -5 -21 -6 -10 -9 -11 -9 -2 0 6 -5
12 -10 12 -5 0 -9 -3 -7 -7 1 -5 -8 -18 -20 -30 -17 -17 -23 -18 -27 -8 -3 8
-1 17 5 20 9 6 6 46 -5 64 -4 5 -1 13 5 16 5 4 8 13 6 20 -4 8 5 12 26 11 21
-1 32 -7 32 -16 0 -18 16 -31 28 -23 5 3 3 9 -3 13 -8 5 -10 15 -5 26 5 11 7
24 6 29 -1 6 8 -1 19 -14 11 -12 17 -27 14 -32z m-171 -146 c-7 -3 -15 -4 -19
-3 -4 1 -10 -4 -14 -10 -5 -9 -9 -8 -12 2 -4 9 4 14 26 14 17 1 25 -1 19 -3z
m-139 -44 c-7 -13 15 -41 27 -33 16 10 9 -2 -14 -24 l-22 -21 -1 49 c0 27 4
47 8 44 5 -3 6 -10 2 -15z"/>
<path d="M1667 436 c-3 -8 -3 -17 1 -21 4 -4 7 -11 7 -16 0 -5 3 -9 8 -9 6 0
9 5 6 13 0 1 -2 10 -4 20 -5 26 -11 31 -18 13z"/>
<path d="M1582 409 c-7 -10 -8 -19 -4 -19 11 0 10 -51 -2 -68 -7 -11 -4 -11
12 -1 11 7 19 21 17 31 -4 19 5 23 21 10 5 -4 8 -5 7 -3 -2 2 2 10 7 16 8 9 6
14 -5 18 -8 4 -12 12 -10 19 9 22 -30 19 -43 -3z m44 -36 c-3 -4 -6 -1 -6 7 0
10 -4 10 -17 -1 -16 -13 -17 -12 -4 4 9 12 10 17 2 17 -7 0 -9 5 -6 11 5 6 13
2 22 -11 8 -12 12 -24 9 -27z"/>
<path d="M1383 185 c0 -8 4 -12 9 -9 5 3 6 10 3 15 -9 13 -12 11 -12 -6z"/>
<path d="M1394 251 c7 -9 11 -23 9 -31 -4 -13 -3 -13 6 0 6 8 11 10 11 4 0 -6
6 -11 14 -11 12 0 12 3 0 22 -8 12 -12 24 -9 26 2 3 -7 5 -20 5 -21 0 -23 -2
-11 -15z"/>
<path d="M1187 84 c17 -13 17 -14 1 -8 -13 4 -18 1 -18 -11 0 -9 5 -13 11 -10
6 4 5 -2 -2 -13 -24 -38 -1 -35 60 8 34 24 61 43 61 44 0 1 -29 2 -65 2 -58 2
-63 0 -48 -12z m38 -13 c3 -5 2 -12 -3 -15 -5 -3 -9 1 -9 9 0 17 3 19 12 6z"/>
</g>
</svg>
